# xmcd
#
# Track frame offsets:
#	150
#	31520
#	56723
#	78839
#	95988
#	126030
#	157300
#	178320
#	197536
#
# Disc length: 2967
#
# Revision: 1
# Processed by: cddbd v1.5.1PL0 Copyright (c) Steve Scherf et al.
# Submitted via: CDex 1.50
# Normalized: r0:TRMNUM
#
DISCID=760b9509
DTITLE=Ten Directions - Vitro
DYEAR=2000
DGENRE=Jazz
TTITLE0=Rakitje Lake (I.Kapec)
TTITLE1=Virto (M.Kadoiæ)
TTITLE2=Moonshine (M.Kadoiæ)
TTITLE3=Metro - Direction (I.Kapec)
TTITLE4=Boozonja (M.Kadoiæ)
TTITLE5=Solution (M.Mikuletiè)
TTITLE6=Extra Size (I.Kapec)
TTITLE7=Then We Knew (M.Mikuletiè)
TTITLE8=Boozonja (M.Kadoiè) reprise
EXTD=YEAR: 2000
EXTT0=
EXTT1=
EXTT2=
EXTT3=
EXTT4=
EXTT5=
EXTT6=
EXTT7=
EXTT8=
PLAYORDER=
